<svg xmlns="http://www.w3.org/2000/svg" width="100" height="100" viewBox="0 0 100 100"><path d="M88.9 58.8c-2.4-2.3-3.7-5.5-3.7-8.8 0-3.3 1.3-6.4 3.7-8.8.4-.4.8-.7 1.3-1.1.7-.5.9-1.4.7-2.2-.8-2.9-2-5.7-3.4-8.3-.4-.7-1.2-1.1-2-1-.7.1-1.2.1-1.7.1-6.9 0-12.5-5.6-12.5-12.4 0-.5 0-1.1.1-1.7.1-.8-.3-1.6-1-2-2.6-1.4-5.4-2.6-8.3-3.4-.8-.2-1.7.1-2.2.7-.4.5-.8 1-1.1 1.3-2.4 2.3-5.5 3.6-8.8 3.6s-6.5-1.3-8.8-3.6c-.4-.4-.7-.8-1.1-1.3-.5-.7-1.4-.9-2.2-.7-2.9.9-5.7 2-8.3 3.4-.7.4-1.1 1.2-1 2 .1.7.1 1.2.1 1.7 0 6.9-5.6 12.4-12.5 12.4-.5 0-1.1 0-1.7-.1-.8-.1-1.6.3-2 1-1.4 2.6-2.6 5.4-3.4 8.3-.2.8 0 1.7.7 2.2.6.4 1 .8 1.3 1.1 4.9 4.8 4.9 12.7 0 17.6-.4.4-.8.7-1.3 1.1-.7.5-.9 1.4-.7 2.2.9 2.9 2 5.7 3.4 8.3.4.7 1.2 1.1 2 1 .7-.1 1.2-.1 1.7-.1 6.9 0 12.5 5.6 12.5 12.4 0 .5 0 1.1-.1 1.7-.1.8.3 1.6 1 2 2.6 1.4 5.4 2.6 8.3 3.4.8.2 1.7 0 2.2-.7.4-.5.8-1 1.1-1.3 2.4-2.3 5.5-3.6 8.8-3.6s6.5 1.3 8.8 3.6c.4.4.7.8 1.1 1.3.4.5 1 .8 1.6.8.2 0 .4 0 .6-.1 2.9-.9 5.7-2 8.3-3.4.7-.4 1.1-1.2 1-2-.1-.7-.1-1.2-.1-1.7 0-6.9 5.6-12.4 12.5-12.4.5 0 1.1 0 1.7.1.8.1 1.6-.3 2-1 1.4-2.6 2.6-5.4 3.4-8.3.2-.8 0-1.7-.7-2.2-.5-.4-1-.7-1.3-1.1zm-4.3 8.5h-.9c-9.1 0-16.5 7.4-16.5 16.4v.9c-1.6.8-3.3 1.5-5.1 2.1l-.6-.6c-3.1-3.1-7.2-4.8-11.6-4.8s-8.5 1.7-11.6 4.8l-.6.6c-1.7-.6-3.4-1.3-5.1-2.1v-.9c0-9.1-7.4-16.4-16.5-16.4h-.9c-.8-1.6-1.5-3.3-2.1-5.1l.6-.6c6.4-6.4 6.4-16.8 0-23.3l-.6-.6c.6-1.7 1.3-3.4 2.1-5.1h.9c9.1 0 16.5-7.4 16.5-16.4v-.9c1.6-.8 3.3-1.5 5.1-2.1l.6.6c3.1 3.1 7.2 4.8 11.6 4.8s8.5-1.7 11.6-4.8l.6-.6c1.7.6 3.4 1.3 5.1 2.1v.9c0 9.1 7.4 16.4 16.5 16.4h.9c.8 1.6 1.5 3.3 2.1 5.1l-.6.6c-3.1 3.1-4.8 7.2-4.8 11.6s1.7 8.5 4.8 11.6l.6.6c-.6 1.9-1.3 3.6-2.1 5.2zM50 26.2c-13.1 0-23.8 10.7-23.8 23.8S36.9 73.8 50 73.8 73.8 63.1 73.8 50 63.1 26.2 50 26.2zm0 43.6c-10.9 0-19.8-8.9-19.8-19.8S39.1 30.2 50 30.2 69.8 39.1 69.8 50 60.9 69.8 50 69.8z"/><path fill="#00F" d="M1644-790V894H-140V-790h1784m8-8H-148V902h1800V-798z"/></svg>